<svg xmlns="http://www.w3.org/2000/svg" width="76" height="72" fill="none" viewBox="0 0 76 72"><path fill="#83b3d3" d="M30.12 65h16.06V41.2H30.12zm2.91-20.9h10.14v18H33.03z"/><path fill="#83b3d3" d="m73.4 39.3 2.1-2.1-9.94-9.9V0H51.6v13.6L37.95 0 .5 37.2l2.1 2.1 7.84-7.8v37.6H6.42V72h64.16v-2.9h-5.12V31.5zM62.54 69.1h-49.2V28.5l24.6-24.4 24.6 24.4zm0-44.7-7.93-7.9V2.9h7.93z"/><path fill="#83b3d3" d="M30.32 27.1c0 4.3 3.51 7.7 7.73 7.7a7.8 7.8 0 0 0 7.83-7.7c0-4.3-3.51-7.7-7.83-7.7a7.7 7.7 0 0 0-7.73 7.7m7.83-5a5 5 0 0 1 5.02 4.9c0 2.7-2.2 4.9-5.02 4.9a5 5 0 0 1-5.02-4.9c0-2.7 2.2-4.9 5.02-4.9M20.48 41.2h-3.01v3.9h3.01zM26.4 41.2h-3v3.9h3zM20.48 47.2h-3.01v3.9h3.01zM26.4 47.2h-3v3.9h3zM52.5 41.2h-3v3.9h3zM58.43 41.2h-3.01v3.9h3.01zM52.5 47.2h-3v3.9h3zM58.43 47.2h-3.01v3.9h3.01z"/></svg>